<svg width="17" height="18" viewBox="0 0 17 18" fill="none" xmlns="http://www.w3.org/2000/svg">
<path d="M10.1404 10.4417L11.3071 8.42502C11.3821 8.30002 11.3488 8.14168 11.2404 8.05002L10.0071 7.08335C10.0321 6.90002 10.0488 6.70835 10.0488 6.51668C10.0488 6.32502 10.0321 6.13335 10.0071 5.94168L11.2404 4.97502C11.3488 4.88335 11.3821 4.72502 11.3071 4.60002L10.1404 2.58335C10.0654 2.45835 9.91545 2.40835 9.78211 2.45835L8.33212 3.04168C8.03212 2.80835 7.70712 2.61668 7.34878 2.46668L7.13212 0.925016C7.10712 0.791683 6.98212 0.68335 6.84045 0.68335H4.50712C4.36545 0.68335 4.24045 0.791683 4.21545 0.93335L3.99878 2.47502C3.64878 2.62502 3.31545 2.81668 3.01545 3.05002L1.56545 2.46668C1.43212 2.41668 1.28212 2.46668 1.20712 2.59168L0.0404487 4.60835C-0.0345513 4.73335 -0.0012178 4.89168 0.107116 4.98335L1.34045 5.95002C1.31545 6.13335 1.29878 6.32502 1.29878 6.51668C1.29878 6.70835 1.31545 6.90002 1.34045 7.09168L0.107116 8.05835C-0.0012178 8.15002 -0.0345513 8.30835 0.0404487 8.43335L1.20712 10.45C1.28212 10.575 1.43212 10.625 1.56545 10.575L3.01545 9.99168C3.31545 10.225 3.64045 10.4167 3.99878 10.5667L4.21545 12.1083C4.24045 12.2417 4.36545 12.35 4.50712 12.35H6.84045C6.98212 12.35 7.10712 12.2417 7.13212 12.1L7.34878 10.5584C7.69878 10.4083 8.03212 10.2167 8.33212 9.98335L9.78211 10.5667C9.91545 10.6167 10.0654 10.5667 10.1404 10.4417ZM5.67378 8.18335C4.75712 8.18335 4.00712 7.43335 4.00712 6.51668C4.00712 5.60002 4.75712 4.85002 5.67378 4.85002C6.59045 4.85002 7.34045 5.60002 7.34045 6.51668C7.34045 7.43335 6.59045 8.18335 5.67378 8.18335Z" fill="#666D80"/>
<path d="M16.5984 14.5751L15.7984 13.9584C15.8151 13.8418 15.8317 13.7168 15.8317 13.5918C15.8317 13.4668 15.8234 13.3418 15.7984 13.2251L16.5901 12.6084C16.6567 12.5501 16.6817 12.4501 16.6317 12.3668L15.8817 11.0751C15.8401 10.9918 15.7401 10.9668 15.6484 10.9918L14.7234 11.3668C14.5317 11.2168 14.3234 11.0918 14.0901 11.0001L13.9484 10.0168C13.9401 9.91676 13.8567 9.8501 13.7734 9.8501H12.2817C12.1901 9.8501 12.1067 9.91676 12.0984 10.0084L11.9567 10.9918C11.7317 11.0918 11.5151 11.2084 11.3234 11.3584L10.3984 10.9834C10.3151 10.9501 10.2151 10.9834 10.1651 11.0668L9.41507 12.3584C9.3734 12.4418 9.38174 12.5418 9.45674 12.6001L10.2484 13.2168C10.2317 13.3334 10.2234 13.4584 10.2234 13.5834C10.2234 13.7084 10.2317 13.8334 10.2484 13.9501L9.45674 14.5668C9.39007 14.6251 9.36507 14.7251 9.41507 14.8084L10.1651 16.1001C10.2067 16.1834 10.3067 16.2084 10.3984 16.1834L11.3234 15.8084C11.5151 15.9584 11.7234 16.0834 11.9567 16.1751L12.0984 17.1584C12.1151 17.2501 12.1901 17.3168 12.2817 17.3168H13.7734C13.8651 17.3168 13.9484 17.2501 13.9567 17.1584L14.0984 16.1751C14.3234 16.0751 14.5401 15.9584 14.7234 15.8084L15.6567 16.1834C15.7401 16.2168 15.8401 16.1834 15.8901 16.1001L16.6401 14.8084C16.6901 14.7334 16.6651 14.6334 16.5984 14.5751ZM13.0234 14.7084C12.4067 14.7084 11.8984 14.2084 11.8984 13.5834C11.8984 12.9584 12.3984 12.4584 13.0234 12.4584C13.6484 12.4584 14.1484 12.9584 14.1484 13.5834C14.1484 14.2084 13.6401 14.7084 13.0234 14.7084Z" fill="#666D80"/>
</svg>
