<svg width="19" height="16" viewBox="0 0 19 16" fill="none" xmlns="http://www.w3.org/2000/svg">
<path d="M1.8 15.0211C1.305 15.0211 0.8814 14.845 0.5292 14.4928C0.1764 14.14 0 13.7161 0 13.2211V2.42109C0 1.92609 0.1764 1.50249 0.5292 1.15029C0.8814 0.797494 1.305 0.621094 1.8 0.621094H6.4575C6.6975 0.621094 6.9264 0.666094 7.1442 0.756094C7.3614 0.846094 7.5525 0.973594 7.7175 1.13859L9 2.42109H16.2C16.695 2.42109 17.1189 2.59749 17.4717 2.95029C17.8239 3.30249 18 3.72609 18 4.22109H3.6C3.105 4.22109 2.6814 4.39719 2.3292 4.74939C1.9764 5.10219 1.8 5.52609 1.8 6.02109V13.2211L3.5775 7.30359C3.6975 6.91359 3.9189 6.60219 4.2417 6.36939C4.5639 6.13719 4.92 6.02109 5.31 6.02109H16.92C17.535 6.02109 18.0189 6.26469 18.3717 6.75189C18.7239 7.23969 18.8175 7.76859 18.6525 8.33859L17.0325 13.7386C16.9125 14.1286 16.6914 14.44 16.3692 14.6728C16.0464 14.905 15.69 15.0211 15.3 15.0211H1.8Z" fill="#666D80"/>
</svg>
