<svg width="93" height="31" viewBox="0 0 93 31" fill="none" xmlns="http://www.w3.org/2000/svg">
<path d="M90.7003 24.2399C90.1269 24.2399 89.6353 24.0453 89.2257 23.6562C88.8161 23.2466 88.6113 22.7346 88.6113 22.1202C88.6113 21.5263 88.8161 21.0348 89.2257 20.6457C89.6353 20.2361 90.1269 20.0312 90.7003 20.0312C91.2737 20.0312 91.755 20.2258 92.1441 20.6149C92.5332 21.0041 92.7278 21.5058 92.7278 22.1202C92.7278 22.7346 92.523 23.2466 92.1134 23.6562C91.7243 24.0453 91.2533 24.2399 90.7003 24.2399Z" fill="white"/>
<path d="M79.7887 30.1998C79.0719 30.1998 78.4063 30.1179 77.7919 29.9541C77.1775 29.7902 76.6655 29.5445 76.2559 29.2168L77.2082 26.9435C77.8226 27.4555 78.6213 27.7115 79.6043 27.7115C80.3826 27.7115 80.9765 27.4657 81.3861 26.9742C81.8162 26.5032 82.0312 25.7966 82.0312 24.8545V7.77422H84.9803V24.7931C84.9803 26.4725 84.5298 27.7934 83.6287 28.756C82.7275 29.7185 81.4475 30.1998 79.7887 30.1998ZM83.5058 4.64078C82.9323 4.64078 82.4511 4.45646 82.0619 4.08782C81.6933 3.71918 81.509 3.26862 81.509 2.73614C81.509 2.20366 81.6933 1.7531 82.0619 1.38446C82.4511 0.995341 82.9323 0.800781 83.5058 0.800781C84.0792 0.800781 84.5503 0.985101 84.9189 1.35374C85.308 1.7019 85.5026 2.14222 85.5026 2.6747C85.5026 3.22766 85.308 3.6987 84.9189 4.08782C84.5503 4.45646 84.0792 4.64078 83.5058 4.64078Z" fill="white"/>
<path d="M73.9129 7.77422H76.862V24.0558H73.9129V7.77422ZM75.3874 4.64078C74.814 4.64078 74.3327 4.45646 73.9436 4.08782C73.5749 3.71918 73.3906 3.26862 73.3906 2.73614C73.3906 2.20366 73.5749 1.7531 73.9436 1.38446C74.3327 0.995341 74.814 0.800781 75.3874 0.800781C75.9609 0.800781 76.4319 0.985101 76.8005 1.35374C77.1897 1.7019 77.3842 2.14222 77.3842 2.6747C77.3842 3.22766 77.1897 3.6987 76.8005 4.08782C76.4319 4.45646 75.9609 4.64078 75.3874 4.64078Z" fill="white"/>
<path d="M71.7744 7.77344L64.6474 24.055H61.6368L54.5098 7.77344H57.5818L63.1728 20.8294L68.8867 7.77344H71.7744Z" fill="white"/>
<path d="M46.8142 21.6601C48.7598 21.6601 50.3265 21.0048 51.5143 19.6941L53.1118 21.5987C52.395 22.4589 51.4836 23.1142 50.3777 23.5648C49.2922 24.0153 48.0737 24.2406 46.722 24.2406C45.0017 24.2406 43.4759 23.8925 42.1447 23.1961C40.8135 22.4793 39.7793 21.4861 39.042 20.2163C38.3252 18.9465 37.9668 17.5129 37.9668 15.9155C37.9668 14.3385 38.315 12.9152 39.0113 11.6454C39.7281 10.3757 40.7009 9.39261 41.9297 8.69629C43.179 7.97949 44.5818 7.62109 46.1383 7.62109C47.6129 7.62109 48.9543 7.95901 50.1626 8.63485C51.371 9.29021 52.3335 10.2221 53.0503 11.4304C53.7671 12.6387 54.1358 14.0313 54.1562 15.6083L41.2231 18.1273C41.6327 19.2537 42.3188 20.1241 43.2814 20.7385C44.2644 21.3529 45.442 21.6601 46.8142 21.6601ZM46.1383 10.1094C45.1143 10.1094 44.1927 10.3449 43.3735 10.816C42.5748 11.287 41.9502 11.9526 41.4996 12.8128C41.049 13.6525 40.8238 14.6355 40.8238 15.7619V16.0691L51.2378 14.103C50.9716 12.9152 50.3777 11.9526 49.4561 11.2153C48.5345 10.4781 47.4286 10.1094 46.1383 10.1094Z" fill="white"/>
<path d="M28.8474 21.539C30.793 21.539 32.3597 20.8837 33.5475 19.573L35.145 21.4776C34.4282 22.3378 33.5168 22.9931 32.4109 23.4437C31.3254 23.8942 30.1069 24.1195 28.7552 24.1195C27.0349 24.1195 25.5091 23.7714 24.1779 23.075C22.8467 22.3582 21.8125 21.365 21.0752 20.0952C20.3584 18.8254 20 17.3918 20 15.7944C20 14.2174 20.3482 12.7941 21.0445 11.5243C21.7613 10.2546 22.7341 9.27152 23.9629 8.5752C25.2122 7.8584 26.615 7.5 28.1715 7.5C29.6461 7.5 30.9875 7.83792 32.1958 8.51376C33.4042 9.16912 34.3667 10.101 35.0835 11.3093C35.8003 12.5176 36.169 13.9102 36.1894 15.4872L23.2563 18.0062C23.6659 19.1326 24.352 20.003 25.3146 20.6174C26.2976 21.2318 27.4752 21.539 28.8474 21.539ZM28.1715 9.98832C27.1475 9.98832 26.2259 10.2238 25.4067 10.6949C24.608 11.1659 23.9834 11.8315 23.5328 12.6917C23.0822 13.5314 22.857 14.5144 22.857 15.6408V15.948L33.271 13.9819C33.0048 12.7941 32.4109 11.8315 31.4893 11.0942C30.5677 10.357 29.4618 9.98832 28.1715 9.98832Z" fill="white"/>
<path d="M14.377 24.0567L9.73824 17.4519C9.1648 17.4929 8.71424 17.5134 8.38656 17.5134H3.072V24.0567H0V2.55273H8.38656C11.1718 2.55273 13.3632 3.21833 14.9606 4.54953C16.5581 5.88073 17.3568 7.71369 17.3568 10.0484C17.3568 11.7073 16.9472 13.1204 16.128 14.2878C15.3088 15.4551 14.1414 16.3051 12.6259 16.8375L17.7254 24.0567H14.377ZM8.2944 14.9022C10.24 14.9022 11.7248 14.4823 12.7488 13.6427C13.7728 12.803 14.2848 11.6049 14.2848 10.0484C14.2848 8.49194 13.7728 7.3041 12.7488 6.48489C11.7248 5.64521 10.24 5.22537 8.2944 5.22537H3.072V14.9022H8.2944Z" fill="white"/>
</svg>
